<?xml version="1.0" encoding="UTF-8" standalone="no"?>
<!-- Created with Inkscape (http://www.inkscape.org/) -->

<svg
   xmlns:dc="http://purl.org/dc/elements/1.1/"
   xmlns:cc="http://creativecommons.org/ns#"
   xmlns:rdf="http://www.w3.org/1999/02/22-rdf-syntax-ns#"
   xmlns:svg="http://www.w3.org/2000/svg"
   xmlns="http://www.w3.org/2000/svg"
   xmlns:xlink="http://www.w3.org/1999/xlink"
   xmlns:sodipodi="http://sodipodi.sourceforge.net/DTD/sodipodi-0.dtd"
   xmlns:inkscape="http://www.inkscape.org/namespaces/inkscape"
   version="1.1"
   id="svg815"
   xml:space="preserve"
   width="8.5in"
   height="11in"
   viewBox="0 0 816 1056"
   sodipodi:docname="Portada.svg"
   inkscape:version="0.92.4 (5da689c313, 2019-01-14)"><metadata
     id="metadata821"><rdf:RDF><cc:Work
         rdf:about=""><dc:format>image/svg+xml</dc:format><dc:type
           rdf:resource="http://purl.org/dc/dcmitype/StillImage" /><dc:title></dc:title></cc:Work></rdf:RDF></metadata><defs
     id="defs819" /><sodipodi:namedview
     pagecolor="#ffffff"
     bordercolor="#666666"
     borderopacity="1"
     objecttolerance="10"
     gridtolerance="10"
     guidetolerance="10"
     inkscape:pageopacity="0"
     inkscape:pageshadow="2"
     inkscape:window-width="1366"
     inkscape:window-height="705"
     id="namedview817"
     showgrid="false"
     units="in"
     width="8.5in"
     inkscape:zoom="0.50757576"
     inkscape:cx="458.23881"
     inkscape:cy="528"
     inkscape:window-x="-8"
     inkscape:window-y="-8"
     inkscape:window-maximized="1"
     inkscape:current-layer="g823" /><g
     id="g823"
     inkscape:groupmode="layer"
     inkscape:label="INVESTIDORESP-1"
     transform="matrix(1.3333333,0,0,-1.3333333,0,1056)"><path
       d="M -2.3499999e-6,792.00002 H 612.00002 V -5.9999975e-7 H -2.3499999e-6 Z"
       style="fill:#e7e9e6;fill-opacity:1;fill-rule:evenodd;stroke:none;stroke-width:0.96695447"
       id="path825"
       inkscape:connector-curvature="0" /><g
       id="g5224"
       transform="translate(46.38806,-35.014924)"><path
         inkscape:connector-curvature="0"
         id="path827"
         style="fill:#100f0d;fill-opacity:1;fill-rule:nonzero;stroke:none"
         d="m 101.86081,263.76182 h -8.778 v -24.067 h -8.695 v 24.067 h -8.778 l -0.577,0.577 v 7.335 h 27.405 v -7.335 z" /><path
         inkscape:connector-curvature="0"
         id="path829"
         style="fill:#100f0d;fill-opacity:1;fill-rule:nonzero;stroke:none"
         d="m 118.75681,260.50582 h -3.998 v -5.192 h 3.998 c 0.714,0 1.332,0.255 1.854,0.768 0.522,0.513 0.783,1.129 0.783,1.849 0,0.719 -0.261,1.329 -0.783,1.828 -0.522,0.498 -1.14,0.747 -1.854,0.747 z m 5.11,-20.811 -4.286,8.283 h -4.822 v -8.283 h -7.953 v 27.157 h 14.176 c 0.632,0 1.284,-0.089 1.957,-0.267 0.674,-0.179 1.326,-0.427 1.958,-0.742 0.632,-0.316 1.216,-0.694 1.752,-1.133 0.535,-0.44 0.995,-0.935 1.38,-1.484 0.467,-0.687 0.824,-1.429 1.071,-2.225 0.247,-0.798 0.372,-1.608 0.372,-2.432 0,-1.318 -0.303,-2.562 -0.907,-3.729 -0.605,-1.168 -1.429,-2.15 -2.473,-2.947 l 6.346,-12.198 z" /><path
         inkscape:connector-curvature="0"
         id="path831"
         style="fill:#100f0d;fill-opacity:1;fill-rule:nonzero;stroke:none"
         d="m 155.39181,249.74982 c 0,-1.264 -0.206,-2.452 -0.618,-3.564 -0.412,-1.113 -0.982,-2.116 -1.71,-3.009 -0.728,-0.893 -1.594,-1.669 -2.596,-2.328 -1.003,-0.66 -2.081,-1.154 -3.235,-1.484 -0.495,-0.137 -1.01,-0.253 -1.546,-0.35 -0.535,-0.096 -1.078,-0.144 -1.627,-0.144 -0.55,0 -1.092,0.048 -1.628,0.144 -0.535,0.097 -1.051,0.213 -1.546,0.35 -1.154,0.33 -2.224,0.824 -3.214,1.484 -0.988,0.659 -1.854,1.435 -2.596,2.328 -0.742,0.893 -1.318,1.896 -1.731,3.009 -0.412,1.112 -0.618,2.3 -0.618,3.564 v 17.102 h 8.036 v -16.689 c 0,-0.441 0.089,-0.845 0.268,-1.216 0.179,-0.371 0.419,-0.695 0.721,-0.969 0.302,-0.274 0.653,-0.494 1.051,-0.659 0.398,-0.165 0.817,-0.248 1.257,-0.248 0.439,0 0.858,0.083 1.257,0.248 0.398,0.165 0.748,0.385 1.051,0.659 0.302,0.274 0.542,0.598 0.721,0.969 0.178,0.371 0.268,0.775 0.268,1.216 v 16.689 h 8.035 z" /><path
         inkscape:connector-curvature="0"
         id="path833"
         style="fill:#100f0d;fill-opacity:1;fill-rule:nonzero;stroke:none"
         d="m 168.95081,238.82882 c -1.786,0 -3.551,0.221 -5.296,0.66 -1.744,0.439 -3.413,1.044 -5.006,1.813 -0.028,0 -0.07,0.014 -0.124,0.041 -0.056,0.027 -0.123,0.055 -0.206,0.083 -0.138,0.082 -0.241,0.171 -0.309,0.268 -0.069,0.096 -0.103,0.171 -0.103,0.227 0,0.026 0.151,0.322 0.454,0.885 0.301,0.563 0.658,1.202 1.07,1.917 0.385,0.631 0.742,1.242 1.072,1.834 0.33,0.59 0.604,1.064 0.824,1.421 0.302,-0.137 0.529,-0.241 0.68,-0.309 0.151,-0.069 0.295,-0.144 0.433,-0.226 1.209,-0.605 2.418,-1.072 3.627,-1.402 1.209,-0.329 2.472,-0.494 3.791,-0.494 h 0.556 c 0.179,0 0.364,0.013 0.557,0.041 0.412,0 0.782,0.055 1.112,0.165 0.33,0.137 0.611,0.33 0.845,0.577 0.233,0.247 0.35,0.618 0.35,1.113 0,0.356 -0.138,0.639 -0.412,0.844 -0.275,0.207 -0.563,0.378 -0.865,0.516 -0.193,0.082 -0.371,0.15 -0.536,0.206 -0.468,0.191 -0.941,0.336 -1.422,0.432 -0.481,0.096 -0.968,0.199 -1.463,0.309 -0.659,0.138 -1.304,0.282 -1.937,0.433 -0.631,0.151 -1.25,0.309 -1.854,0.474 -0.632,0.192 -1.223,0.405 -1.772,0.639 -0.55,0.233 -1.072,0.501 -1.566,0.803 -1.017,0.632 -1.828,1.463 -2.432,2.494 -0.604,1.03 -0.906,2.396 -0.906,4.1 0,1.209 0.261,2.376 0.783,3.503 0.521,1.098 1.188,1.999 1.998,2.699 0.81,0.7 1.711,1.257 2.7,1.669 0.989,0.412 2.019,0.694 3.09,0.845 1.072,0.15 2.143,0.227 3.215,0.227 1.758,0 3.51,-0.221 5.254,-0.66 1.744,-0.44 3.455,-1.181 5.131,-2.225 -0.632,-1.072 -1.223,-2.096 -1.772,-3.07 -0.55,-0.976 -1.141,-1.999 -1.772,-3.071 -1.401,0.714 -2.714,1.271 -3.936,1.669 -1.223,0.398 -2.534,0.598 -3.935,0.598 -0.275,0 -0.584,-0.007 -0.927,-0.02 -0.344,-0.015 -0.66,-0.076 -0.948,-0.186 -0.289,-0.11 -0.536,-0.275 -0.742,-0.495 -0.206,-0.22 -0.309,-0.535 -0.309,-0.947 0,-0.248 0.069,-0.481 0.206,-0.701 0.109,-0.22 0.35,-0.405 0.721,-0.556 0.371,-0.151 0.872,-0.309 1.504,-0.474 0.604,-0.165 1.27,-0.323 1.999,-0.474 0.728,-0.151 1.476,-0.337 2.246,-0.557 0.769,-0.192 1.552,-0.418 2.349,-0.679 0.796,-0.262 1.545,-0.592 2.246,-0.99 0.7,-0.398 1.332,-0.865 1.896,-1.4 0.562,-0.536 1.009,-1.175 1.339,-1.917 0.247,-0.55 0.418,-1.14 0.515,-1.772 0.096,-0.632 0.144,-1.251 0.144,-1.854 0,-1.814 -0.365,-3.297 -1.092,-4.451 -0.729,-1.154 -1.676,-2.075 -2.844,-2.761 -1.167,-0.687 -2.472,-1.161 -3.914,-1.422 -1.443,-0.261 -2.878,-0.392 -4.307,-0.392" /><path
         inkscape:connector-curvature="0"
         id="path835"
         style="fill:#100f0d;fill-opacity:1;fill-rule:nonzero;stroke:none"
         d="m 204.88681,259.80582 h -7.006 v -20.111 h -7.747 v 20.111 h -7.007 l -0.658,0.659 v 6.388 h 23.077 v -6.388 z" /><path
         inkscape:connector-curvature="0"
         id="path837"
         style="fill:#100f0d;fill-opacity:1;fill-rule:nonzero;stroke:none"
         d="m 35.53381,233.28782 h 8.613 v -31.979 h -8.613 z" /><path
         inkscape:connector-curvature="0"
         id="path839"
         style="fill:#100f0d;fill-opacity:1;fill-rule:nonzero;stroke:none"
         d="m 65.20481,201.30882 -8.365,13.146 v -13.146 h -7.666 v 27.157 h 7.501 l 8.365,-13.228 v 13.228 h 7.665 v -27.157 z" /><path
         inkscape:connector-curvature="0"
         id="path841"
         style="fill:#100f0d;fill-opacity:1;fill-rule:nonzero;stroke:none"
         d="m 92.89781,201.30882 h -6.47 l -9.89,27.157 h 8.077 l 5.069,-13.929 5.069,13.929 h 8.036 z" /><path
         inkscape:connector-curvature="0"
         id="path843"
         style="fill:#100f0d;fill-opacity:1;fill-rule:nonzero;stroke:none"
         d="m 104.43781,201.30882 v 27.157 h 21.552 v -6.799 h -14.382 v -3.338 h 13.599 v -6.841 h -13.599 v -3.338 h 14.382 v -6.841 z" /><path
         inkscape:connector-curvature="0"
         id="path845"
         style="fill:#100f0d;fill-opacity:1;fill-rule:nonzero;stroke:none"
         d="m 139.63081,200.44282 c -1.786,0 -3.551,0.221 -5.296,0.66 -1.745,0.439 -3.414,1.044 -5.007,1.813 -0.027,0 -0.069,0.013 -0.123,0.041 -0.056,0.027 -0.124,0.055 -0.207,0.082 -0.137,0.083 -0.241,0.172 -0.309,0.269 -0.069,0.096 -0.103,0.171 -0.103,0.226 0,0.027 0.151,0.323 0.454,0.886 0.302,0.563 0.659,1.202 1.071,1.917 0.384,0.631 0.742,1.242 1.072,1.834 0.329,0.59 0.603,1.064 0.824,1.421 0.302,-0.138 0.529,-0.241 0.68,-0.309 0.151,-0.069 0.294,-0.144 0.432,-0.226 1.209,-0.605 2.418,-1.072 3.627,-1.402 1.208,-0.329 2.473,-0.494 3.791,-0.494 h 0.557 c 0.179,0 0.364,0.013 0.556,0.041 0.412,0 0.783,0.055 1.113,0.165 0.33,0.137 0.611,0.33 0.845,0.577 0.233,0.247 0.35,0.618 0.35,1.113 0,0.356 -0.138,0.639 -0.412,0.844 -0.275,0.206 -0.564,0.378 -0.866,0.515 -0.193,0.083 -0.37,0.151 -0.536,0.206 -0.467,0.192 -0.941,0.337 -1.421,0.433 -0.481,0.096 -0.969,0.199 -1.463,0.309 -0.659,0.137 -1.306,0.282 -1.937,0.433 -0.632,0.15 -1.251,0.309 -1.854,0.474 -0.633,0.191 -1.223,0.405 -1.773,0.639 -0.549,0.233 -1.071,0.5 -1.566,0.803 -1.016,0.632 -1.827,1.463 -2.431,2.493 -0.604,1.031 -0.906,2.397 -0.906,4.101 0,1.208 0.26,2.376 0.782,3.502 0.522,1.099 1.188,1.999 1.999,2.7 0.81,0.7 1.71,1.256 2.699,1.669 0.989,0.412 2.02,0.694 3.091,0.845 1.072,0.15 2.143,0.226 3.215,0.226 1.757,0 3.509,-0.22 5.254,-0.659 1.744,-0.44 3.454,-1.182 5.131,-2.225 -0.633,-1.072 -1.223,-2.096 -1.773,-3.07 -0.55,-0.976 -1.14,-1.999 -1.772,-3.071 -1.401,0.714 -2.713,1.271 -3.935,1.669 -1.223,0.398 -2.535,0.598 -3.936,0.598 -0.275,0 -0.584,-0.007 -0.927,-0.021 -0.344,-0.014 -0.659,-0.076 -0.948,-0.185 -0.288,-0.111 -0.535,-0.275 -0.742,-0.495 -0.206,-0.22 -0.309,-0.535 -0.309,-0.947 0,-0.248 0.069,-0.481 0.206,-0.701 0.11,-0.22 0.351,-0.406 0.722,-0.556 0.37,-0.152 0.872,-0.309 1.504,-0.474 0.604,-0.165 1.27,-0.324 1.998,-0.474 0.728,-0.151 1.477,-0.337 2.246,-0.557 0.769,-0.192 1.552,-0.418 2.349,-0.679 0.797,-0.262 1.546,-0.592 2.247,-0.99 0.699,-0.398 1.332,-0.865 1.895,-1.4 0.563,-0.536 1.009,-1.175 1.34,-1.917 0.246,-0.55 0.418,-1.14 0.514,-1.772 0.096,-0.633 0.144,-1.251 0.144,-1.854 0,-1.814 -0.364,-3.297 -1.091,-4.452 -0.729,-1.153 -1.676,-2.074 -2.844,-2.76 -1.168,-0.687 -2.473,-1.161 -3.915,-1.422 -1.442,-0.261 -2.878,-0.392 -4.306,-0.392" /><path
         inkscape:connector-curvature="0"
         id="path847"
         style="fill:#100f0d;fill-opacity:1;fill-rule:nonzero;stroke:none"
         d="m 175.56581,221.41882 h -7.006 v -20.11 h -7.747 v 20.11 h -7.006 l -0.659,0.66 v 6.387 h 23.078 v -6.387 z" /><path
         inkscape:connector-curvature="0"
         id="path849"
         style="fill:#100f0d;fill-opacity:1;fill-rule:nonzero;stroke:none"
         d="m 180.22181,228.46582 h 7.954 v -27.157 h -7.954 z" /><path
         inkscape:connector-curvature="0"
         id="path851"
         style="fill:#100f0d;fill-opacity:1;fill-rule:nonzero;stroke:none"
         d="m 208.40981,201.30882 -8.366,13.146 v -13.146 h -7.665 v 27.157 h 7.5 l 8.366,-13.228 v 13.228 h 7.665 v -27.157 z" /><path
         inkscape:connector-curvature="0"
         id="path853"
         style="fill:#100f0d;fill-opacity:1;fill-rule:nonzero;stroke:none"
         d="m 238.57581,201.30882 v 0.576 c -1.952,-0.933 -3.998,-1.4 -6.141,-1.4 -2.006,0 -3.874,0.37 -5.604,1.113 -1.731,0.741 -3.229,1.757 -4.493,3.049 -1.263,1.291 -2.252,2.809 -2.967,4.553 -0.714,1.745 -1.071,3.62 -1.071,5.626 0,1.978 0.364,3.839 1.092,5.584 0.728,1.744 1.731,3.276 3.008,4.595 1.278,1.319 2.782,2.362 4.513,3.132 1.731,0.769 3.585,1.154 5.564,1.154 2.142,0 4.182,-0.472 6.119,-1.415 1.936,-0.942 3.661,-2.316 5.172,-4.118 l -6.305,-4.234 c -1.484,1.538 -3.132,2.308 -4.945,2.308 -0.962,0 -1.848,-0.194 -2.659,-0.579 -0.81,-0.386 -1.511,-0.896 -2.102,-1.529 -0.59,-0.634 -1.057,-1.379 -1.4,-2.233 -0.345,-0.854 -0.516,-1.749 -0.516,-2.686 0,-0.937 0.171,-1.826 0.516,-2.666 0.343,-0.84 0.81,-1.584 1.4,-2.232 0.591,-0.648 1.292,-1.157 2.102,-1.529 0.811,-0.373 1.697,-0.558 2.659,-0.558 0.906,0 1.778,0.185 2.616,0.556 0.838,0.371 1.559,0.887 2.164,1.546 h -4.286 v 7.005 h 12.24 v -15.618 z" /><path
         inkscape:connector-curvature="0"
         id="path855"
         style="fill:#100f0d;fill-opacity:1;fill-rule:nonzero;stroke:none"
         d="m 121.23681,324.42982 v 16.361 h -16.932 v -11.457 c 5.008,-1.979 10.655,-3.698 16.932,-4.904" /><path
         inkscape:connector-curvature="0"
         id="path857"
         style="fill:#100f0d;fill-opacity:1;fill-rule:nonzero;stroke:none"
         d="m 173.28681,332.94182 v 42.268 h -16.932 v -49.578 c 6.287,1.853 12.023,4.443 16.932,7.31" /><path
         inkscape:connector-curvature="0"
         id="path859"
         style="fill:#100f0d;fill-opacity:1;fill-rule:nonzero;stroke:none"
         d="m 132.32081,322.93482 c 5.114,-0.397 10.128,-0.119 14.941,0.64 v 34.484 h -16.932 v -34.935 c 0.663,-0.065 1.317,-0.137 1.991,-0.189" /><path
         inkscape:connector-curvature="0"
         id="path861"
         style="fill:#30af41;fill-opacity:1;fill-rule:evenodd;stroke:none"
         d="m 74.95281,345.83182 c 0,0 18.122,-44.297 59.216,-45.41 46.343,-1.254 74.43,35.413 74.43,35.413 l 12.415,-6.389 -4.393,45.482 -37.023,-25.43 12.542,-6.061 c 0,0 -24.299,-26.368 -58.703,-23.692 -38.902,3.026 -58.484,26.087 -58.484,26.087" /><path
         inkscape:connector-curvature="0"
         id="path863"
         style="fill:#100f0d;fill-opacity:1;fill-rule:nonzero;stroke:none"
         d="m 135.67581,296.64582 c -0.579,0 -1.157,0.004 -1.742,0.014 -0.55,0.01 -1.081,0.058 -1.623,0.083 l -1.981,-10.443 h 16.932 l -2.054,10.83 c -3.064,-0.303 -6.232,-0.484 -9.532,-0.484" /><path
         inkscape:connector-curvature="0"
         id="path865"
         style="fill:#100f0d;fill-opacity:1;fill-rule:nonzero;stroke:none"
         d="m 105.03881,304.96282 -5.577,-11.522 16.347,-4.409 0.808,10.607 c -4.166,1.396 -8.023,3.212 -11.578,5.324" /><path
         inkscape:connector-curvature="0"
         id="path867"
         style="fill:#100f0d;fill-opacity:1;fill-rule:nonzero;stroke:none"
         d="m 161.43281,300.16182 0.847,-11.13 16.349,4.409 -5.291,10.928 c -3.606,-1.553 -7.577,-2.996 -11.905,-4.207" /><path
         inkscape:connector-curvature="0"
         id="path873"
         style="fill:#100f0d;fill-opacity:1;fill-rule:nonzero;stroke:none"
         d="m 82.64981,154.33782 -1.882,6.228 h 1.103 l 0.995,-3.594 0.351,-1.338 c 0.014,0.066 0.122,0.494 0.323,1.284 l 0.985,3.648 h 1.082 l 0.939,-3.616 0.306,-1.186 0.358,1.202 1.076,3.6 h 1.026 l -1.954,-6.228 h -1.093 l -0.987,3.726 -0.251,1.066 -1.259,-4.792 z m 8.666,0 -1.883,6.228 h 1.104 l 0.995,-3.594 0.351,-1.338 c 0.014,0.066 0.122,0.494 0.322,1.284 l 0.986,3.648 h 1.082 l 0.938,-3.616 0.306,-1.186 0.358,1.202 1.076,3.6 h 1.026 l -1.954,-6.228 h -1.092 l -0.987,3.726 -0.251,1.066 -1.26,-4.792 z m 8.665,0 -1.882,6.228 h 1.104 l 0.994,-3.594 0.352,-1.338 c 0.014,0.066 0.122,0.494 0.322,1.284 l 0.986,3.648 h 1.082 l 0.938,-3.616 0.306,-1.186 0.358,1.202 1.076,3.6 h 1.026 l -1.954,-6.228 h -1.092 l -0.988,3.726 -0.25,1.066 -1.26,-4.792 z m 7.184,0 v 1.2 h 1.2 v -1.2 z m 5.326,0.942 0.144,-0.932 c -0.296,-0.062 -0.562,-0.0942 -0.794,-0.0942 -0.382,0 -0.678,0.0602 -0.89,0.1822 -0.21,0.122 -0.358,0.28 -0.444,0.478 -0.086,0.198 -0.128,0.614 -0.128,1.248 v 3.588 h -0.78 v 0.816 h 0.78 v 1.54 l 1.056,0.634 v -2.174 h 1.056 v -0.816 h -1.056 v -3.648 c 0,-0.302 0.018,-0.496 0.056,-0.582 0.036,-0.086 0.096,-0.154 0.18,-0.206 0.084,-0.05 0.204,-0.076 0.36,-0.076 0.116,0 0.27,0.014 0.46,0.042 z m 1.031,-0.942 v 6.228 h 0.947 v -0.954 c 0.243,0.442 0.466,0.734 0.673,0.874 0.205,0.142 0.432,0.212 0.677,0.212 0.356,0 0.718,-0.112 1.087,-0.334 l -0.377,-0.974 c -0.255,0.144 -0.512,0.216 -0.768,0.216 -0.23,0 -0.435,-0.07 -0.617,-0.208 -0.182,-0.138 -0.313,-0.33 -0.391,-0.576 -0.118,-0.374 -0.176,-0.784 -0.176,-1.23 v -3.254 z m 8.075,0 v 0.926 c -0.484,-0.706 -1.14,-1.0584 -1.97,-1.0584 -0.366,0 -0.708,0.0704 -1.025,0.2104 -0.319,0.142 -0.555,0.318 -0.709,0.53 -0.153,0.214 -0.261,0.474 -0.324,0.782 -0.042,0.208 -0.064,0.536 -0.064,0.984 v 3.854 h 1.057 v -3.446 c 0,-0.55 0.021,-0.922 0.063,-1.112 0.066,-0.278 0.206,-0.494 0.422,-0.652 0.214,-0.158 0.478,-0.238 0.794,-0.238 0.316,0 0.612,0.08 0.888,0.242 0.276,0.162 0.472,0.384 0.588,0.662 0.114,0.278 0.172,0.684 0.172,1.214 v 3.33 h 1.056 v -6.228 z m 2.186,1.86 1.044,0.168 c 0.058,-0.418 0.222,-0.738 0.49,-0.962 0.268,-0.222 0.644,-0.334 1.124,-0.334 0.486,0 0.847,0.098 1.082,0.296 0.234,0.196 0.352,0.428 0.352,0.694 0,0.238 -0.106,0.426 -0.316,0.562 -0.148,0.094 -0.508,0.212 -1.08,0.358 -0.772,0.194 -1.306,0.362 -1.606,0.504 -0.298,0.144 -0.524,0.34 -0.678,0.592 -0.154,0.25 -0.232,0.528 -0.232,0.832 0,0.278 0.064,0.534 0.19,0.77 0.128,0.236 0.3,0.432 0.518,0.588 0.164,0.12 0.388,0.222 0.67,0.306 0.284,0.084 0.586,0.126 0.91,0.126 0.488,0 0.916,-0.07 1.284,-0.212 0.37,-0.14 0.642,-0.332 0.818,-0.572 0.174,-0.242 0.296,-0.564 0.362,-0.968 l -1.032,-0.144 c -0.046,0.324 -0.182,0.578 -0.406,0.76 -0.224,0.182 -0.54,0.272 -0.95,0.272 -0.482,0 -0.828,-0.08 -1.034,-0.24 -0.206,-0.16 -0.31,-0.348 -0.31,-0.562 0,-0.137 0.042,-0.26 0.128,-0.37 0.086,-0.112 0.22,-0.206 0.404,-0.28 0.106,-0.04 0.414,-0.13 0.93,-0.27 0.744,-0.198 1.264,-0.362 1.56,-0.488 0.296,-0.126 0.528,-0.312 0.696,-0.552 0.17,-0.242 0.254,-0.542 0.254,-0.902 0,-0.35 -0.102,-0.68 -0.308,-0.99 -0.206,-0.31 -0.502,-0.55 -0.888,-0.72 -0.388,-0.17 -0.826,-0.2544 -1.314,-0.2544 -0.808,0 -1.426,0.1684 -1.85,0.5024 -0.424,0.336 -0.694,0.832 -0.812,1.49 z m 8.713,-0.918 0.144,-0.932 c -0.297,-0.062 -0.563,-0.0942 -0.794,-0.0942 -0.383,0 -0.678,0.0602 -0.891,0.1822 -0.21,0.122 -0.358,0.28 -0.444,0.478 -0.086,0.198 -0.128,0.614 -0.128,1.248 v 3.588 h -0.78 v 0.816 h 0.78 v 1.54 l 1.056,0.634 v -2.174 h 1.057 v -0.816 h -1.057 v -3.648 c 0,-0.302 0.018,-0.496 0.056,-0.582 0.036,-0.086 0.096,-0.154 0.18,-0.206 0.084,-0.05 0.204,-0.076 0.36,-0.076 0.116,0 0.27,0.014 0.461,0.042 z m 1.042,6.45 v 1.2 h 1.055 v -1.2 z m 0,-7.392 v 6.228 h 1.055 v -6.228 z m 2.666,0 v 6.228 h 0.947 v -0.884 c 0.457,0.678 1.116,1.016 1.978,1.016 0.377,0 0.72,-0.068 1.035,-0.202 0.314,-0.134 0.549,-0.312 0.705,-0.53 0.157,-0.218 0.267,-0.478 0.329,-0.778 0.037,-0.196 0.057,-0.538 0.057,-1.026 v -3.824 h -1.055 v 3.784 c 0,0.43 -0.041,0.752 -0.123,0.964 -0.082,0.212 -0.228,0.382 -0.436,0.51 -0.207,0.126 -0.454,0.19 -0.733,0.19 -0.448,0 -0.834,-0.142 -1.161,-0.428 -0.326,-0.284 -0.487,-0.826 -0.487,-1.622 v -3.398 z m 8.375,0 -2.35,6.228 h 1.13 l 1.332,-3.73 c 0.144,-0.402 0.278,-0.82 0.4,-1.254 0.094,0.328 0.225,0.722 0.394,1.184 l 1.384,3.8 h 1.084 l -2.358,-6.228 z m 8.547,2.016 1.091,-0.144 c -0.17,-0.634 -0.488,-1.128 -0.951,-1.478 -0.464,-0.35 -1.057,-0.5264 -1.779,-0.5264 -0.907,0 -1.628,0.2804 -2.16,0.8404 -0.532,0.558 -0.798,1.344 -0.798,2.354 0,1.044 0.268,1.856 0.806,2.432 0.539,0.578 1.237,0.866 2.095,0.866 0.83,0 1.507,-0.282 2.033,-0.848 0.527,-0.566 0.79,-1.362 0.79,-2.388 0,-0.062 -0.002,-0.156 -0.006,-0.28 h -4.638 c 0.04,-0.682 0.232,-1.206 0.58,-1.568 0.347,-0.362 0.78,-0.544 1.298,-0.544 0.386,0 0.716,0.102 0.989,0.306 0.273,0.204 0.489,0.53 0.65,0.978 z m -3.456,1.692 h 3.467 c -0.045,0.524 -0.18,0.916 -0.398,1.178 -0.333,0.406 -0.769,0.61 -1.303,0.61 -0.484,0 -0.89,-0.162 -1.221,-0.486 -0.327,-0.324 -0.509,-0.758 -0.545,-1.302 z m 5.461,-1.848 1.044,0.168 c 0.058,-0.418 0.222,-0.738 0.49,-0.962 0.268,-0.222 0.644,-0.334 1.124,-0.334 0.487,0 0.847,0.098 1.082,0.296 0.234,0.196 0.353,0.428 0.353,0.694 0,0.238 -0.107,0.426 -0.317,0.562 -0.148,0.094 -0.508,0.212 -1.08,0.358 -0.772,0.194 -1.306,0.362 -1.605,0.504 -0.299,0.144 -0.525,0.34 -0.679,0.592 -0.154,0.25 -0.232,0.528 -0.232,0.832 0,0.278 0.064,0.534 0.191,0.77 0.127,0.236 0.299,0.432 0.517,0.588 0.165,0.12 0.388,0.222 0.671,0.306 0.283,0.084 0.585,0.126 0.909,0.126 0.488,0 0.916,-0.07 1.284,-0.212 0.37,-0.14 0.642,-0.332 0.818,-0.572 0.174,-0.242 0.296,-0.564 0.362,-0.968 l -1.031,-0.144 c -0.047,0.324 -0.183,0.578 -0.407,0.76 -0.224,0.182 -0.54,0.272 -0.95,0.272 -0.481,0 -0.828,-0.08 -1.034,-0.24 -0.205,-0.16 -0.309,-0.348 -0.309,-0.562 0,-0.137 0.041,-0.26 0.127,-0.37 0.087,-0.112 0.22,-0.206 0.404,-0.28 0.106,-0.04 0.414,-0.13 0.93,-0.27 0.744,-0.198 1.264,-0.362 1.56,-0.488 0.296,-0.126 0.528,-0.312 0.696,-0.552 0.171,-0.242 0.254,-0.542 0.254,-0.902 0,-0.35 -0.102,-0.68 -0.308,-0.99 -0.206,-0.31 -0.502,-0.55 -0.888,-0.72 -0.388,-0.17 -0.826,-0.2544 -1.314,-0.2544 -0.808,0 -1.425,0.1684 -1.85,0.5024 -0.424,0.336 -0.693,0.832 -0.812,1.49 z m 8.712,-0.918 0.144,-0.932 c -0.296,-0.062 -0.562,-0.0942 -0.793,-0.0942 -0.382,0 -0.679,0.0602 -0.89,0.1822 -0.211,0.122 -0.358,0.28 -0.444,0.478 -0.087,0.198 -0.128,0.614 -0.128,1.248 v 3.588 h -0.781 v 0.816 h 0.781 v 1.54 l 1.055,0.634 v -2.174 h 1.056 v -0.816 h -1.056 v -3.648 c 0,-0.302 0.019,-0.496 0.057,-0.582 0.036,-0.086 0.095,-0.154 0.18,-0.206 0.083,-0.05 0.203,-0.076 0.36,-0.076 0.115,0 0.269,0.014 0.459,0.042 z m 1.043,6.45 v 1.2 h 1.056 v -1.2 z m 0,-7.392 v 6.228 h 1.056 v -6.228 z m 2.665,0 v 6.228 h 0.949 v -0.884 c 0.455,0.678 1.116,1.016 1.978,1.016 0.375,0 0.72,-0.068 1.033,-0.202 0.314,-0.134 0.551,-0.312 0.706,-0.53 0.157,-0.218 0.266,-0.478 0.328,-0.778 0.038,-0.196 0.059,-0.538 0.059,-1.026 v -3.824 h -1.057 v 3.784 c 0,0.43 -0.039,0.752 -0.122,0.964 -0.081,0.212 -0.227,0.382 -0.436,0.51 -0.208,0.126 -0.453,0.19 -0.734,0.19 -0.448,0 -0.833,-0.142 -1.159,-0.428 -0.326,-0.284 -0.488,-0.826 -0.488,-1.622 v -3.398 z m 6.48,-0.5162 1.021,-0.144 c 0.041,-0.3161 0.161,-0.5459 0.358,-0.6922 0.261,-0.1939 0.619,-0.292 1.073,-0.292 0.488,0 0.867,0.0981 1.132,0.292 0.266,0.1942 0.446,0.468 0.54,0.8181 0.054,0.214 0.08,0.6643 0.076,1.3503 -0.462,-0.544 -1.036,-0.816 -1.724,-0.816 -0.856,0 -1.52,0.308 -1.988,0.926 -0.47,0.616 -0.704,1.356 -0.704,2.218 0,0.594 0.108,1.142 0.323,1.644 0.213,0.502 0.525,0.888 0.933,1.162 0.409,0.274 0.888,0.41 1.44,0.41 0.735,0 1.34,-0.3 1.817,-0.9 v 0.768 h 0.972 v -5.378 c 0,-0.9702 -0.099,-1.6562 -0.297,-2.0604 -0.196,-0.4039 -0.51,-0.724 -0.936,-0.9578 -0.427,-0.2342 -0.954,-0.3521 -1.577,-0.3521 -0.743,0 -1.341,0.1661 -1.797,0.5 -0.458,0.332 -0.678,0.834 -0.662,1.5041 z m 0.864,3.7362 c 0,-0.814 0.162,-1.408 0.486,-1.782 0.326,-0.374 0.732,-0.562 1.22,-0.562 0.486,0 0.893,0.186 1.223,0.558 0.327,0.372 0.491,0.956 0.491,1.752 0,0.76 -0.169,1.334 -0.508,1.72 -0.338,0.386 -0.745,0.578 -1.222,0.578 -0.47,0 -0.868,-0.19 -1.198,-0.57 -0.328,-0.38 -0.492,-0.944 -0.492,-1.694 z m 6.304,-3.22 v 1.2 h 1.2 v -1.2 z m 7.102,2.28 1.032,-0.144 c -0.114,-0.71 -0.402,-1.264 -0.868,-1.666 -0.466,-0.402 -1.04,-0.6024 -1.717,-0.6024 -0.851,0 -1.535,0.2784 -2.05,0.8344 -0.519,0.556 -0.777,1.352 -0.777,2.388 0,0.672 0.112,1.258 0.334,1.762 0.223,0.502 0.56,0.88 1.017,1.13 0.453,0.252 0.947,0.378 1.483,0.378 0.675,0 1.228,-0.17 1.656,-0.512 0.43,-0.342 0.706,-0.828 0.826,-1.456 l -1.02,-0.156 c -0.097,0.418 -0.27,0.732 -0.52,0.944 -0.248,0.21 -0.548,0.316 -0.9,0.316 -0.532,0 -0.964,-0.19 -1.298,-0.57 -0.331,-0.382 -0.498,-0.982 -0.498,-1.806 0,-0.836 0.161,-1.442 0.48,-1.82 0.322,-0.378 0.741,-0.568 1.254,-0.568 0.416,0 0.762,0.126 1.038,0.38 0.278,0.252 0.455,0.642 0.528,1.168 z m 1.536,0.834 c 0,1.15 0.321,2.002 0.962,2.556 0.535,0.46 1.188,0.69 1.959,0.69 0.854,0 1.554,-0.28 2.097,-0.84 0.542,-0.558 0.814,-1.332 0.814,-2.318 0,-0.8 -0.12,-1.428 -0.36,-1.886 -0.24,-0.458 -0.59,-0.814 -1.049,-1.068 -0.458,-0.254 -0.96,-0.3804 -1.502,-0.3804 -0.872,0 -1.577,0.2784 -2.115,0.8364 -0.538,0.558 -0.806,1.362 -0.806,2.41 z m 1.08,-0.002 c 0,-0.796 0.175,-1.392 0.522,-1.786 0.351,-0.396 0.788,-0.594 1.319,-0.594 0.523,0 0.96,0.198 1.309,0.596 0.349,0.398 0.522,1.004 0.522,1.818 0,0.768 -0.175,1.35 -0.526,1.744 -0.35,0.396 -0.786,0.594 -1.305,0.594 -0.531,0 -0.968,-0.196 -1.319,-0.59 -0.347,-0.394 -0.522,-0.988 -0.522,-1.782 z m 5.99,-3.112 v 6.228 h 0.948 v -0.88 c 0.195,0.304 0.454,0.55 0.778,0.734 0.324,0.186 0.692,0.278 1.106,0.278 0.46,0 0.838,-0.096 1.132,-0.286 0.294,-0.192 0.502,-0.458 0.622,-0.802 0.496,0.726 1.138,1.088 1.93,1.088 0.621,0 1.098,-0.17 1.43,-0.512 0.334,-0.342 0.502,-0.868 0.502,-1.578 v -4.27 h -1.056 v 3.92 c 0,0.42 -0.036,0.724 -0.104,0.91 -0.068,0.186 -0.192,0.334 -0.374,0.448 -0.18,0.114 -0.392,0.17 -0.634,0.17 -0.44,0 -0.804,-0.146 -1.094,-0.436 -0.29,-0.292 -0.434,-0.758 -0.434,-1.398 v -3.614 h -1.056 v 4.042 c 0,0.468 -0.086,0.82 -0.258,1.054 -0.171,0.234 -0.453,0.352 -0.844,0.352 -0.295,0 -0.57,-0.078 -0.822,-0.234 -0.252,-0.156 -0.434,-0.384 -0.548,-0.686 -0.111,-0.3 -0.168,-0.734 -0.168,-1.3 v -3.228 z" /></g><g
       id="g5163"
       transform="matrix(0.7923754,0,0,0.97026831,-3.7383445e-7,23.547501)"><path
         inkscape:connector-curvature="0"
         id="path869"
         style="fill:#3c3b3c;fill-opacity:1;fill-rule:evenodd;stroke:none;stroke-width:1.31241512"
         d="M 1.58156e-6,792.00002 640.89258,-24.269063 h 77.3495 L 77.357475,792.00002 Z" /><path
         inkscape:connector-curvature="0"
         id="path871"
         style="fill:#30af41;fill-opacity:1;fill-rule:evenodd;stroke:none;stroke-width:1.31241512"
         d="M 718.24208,-24.269063 73.834233,792.00002 H 422.72624 L 772.3612,791.4256 V -24.269063 Z" /></g><text
       xml:space="preserve"
       style="font-style:normal;font-weight:normal;font-size:30px;line-height:1.25;font-family:sans-serif;letter-spacing:0px;word-spacing:0px;fill:#000000;fill-opacity:1;stroke:none;stroke-width:0.75"
       x="68.134384"
       y="-68.417885"
       id="text5228"
       transform="scale(1,-1)"><tspan
         sodipodi:role="line"
         id="tspan5226"
         x="68.134384"
         y="-68.417885"
         style="font-style:normal;font-variant:normal;font-weight:normal;font-stretch:normal;font-size:24px;font-family:Arial;-inkscape-font-specification:Arial;stroke-width:0.75">Evys Ancede Gallardo</tspan></text>
<a
       id="a5248"
       xlink:href="mailto:eancedeg@gmail.com"
       style="fill:#0000ff"
       transform="translate(316.80977,-398.95523)"><text
         transform="scale(1,-1)"
         id="text5228-9"
         y="-426.72937"
         x="-229.46738"
         style="font-style:normal;font-weight:normal;font-size:30px;line-height:1.25;font-family:sans-serif;letter-spacing:0px;word-spacing:0px;fill:#0000ff;fill-opacity:1;stroke:none;stroke-width:0.75"
         xml:space="preserve"><tspan
           style="font-style:normal;font-variant:normal;font-weight:normal;font-stretch:normal;font-size:20px;font-family:Arial;-inkscape-font-specification:Arial;fill:#0000ff;stroke-width:0.75"
           y="-426.72937"
           x="-229.46738"
           id="tspan5226-7"
           sodipodi:role="line">eancedeg@gmail.com</tspan></text>
</a></g></svg>